<?xml version="1.0" encoding="iso-8859-1"?>
<!-- Generator: Adobe Illustrator 19.0.0, SVG Export Plug-In . SVG Version: 6.00 Build 0)  -->
<svg version="1.1" id="Capa_1" xmlns="http://www.w3.org/2000/svg" xmlns:xlink="http://www.w3.org/1999/xlink" x="0px" y="0px"
	 viewBox="0 0 409.6 409.6" style="enable-background:new 0 0 409.6 409.6;" xml:space="preserve">
<g>
	<g>
		<path d="M204.8,0C91.648,0,0,91.648,0,204.8s91.648,204.8,204.8,204.8s204.8-91.648,204.8-204.8S317.952,0,204.8,0z M182.272,256
			c0,12.8-10.24,22.528-22.528,22.528c-12.8,0-22.528-10.24-22.528-22.528V153.6c-0.512-12.288,9.728-22.528,22.016-22.528
			c12.8,0,23.04,10.24,23.04,22.528V256z M272.896,256c0,12.8-10.24,22.528-22.528,22.528c-12.8,0-22.528-10.24-22.528-22.528V153.6
			c-0.512-12.288,9.728-22.528,22.016-22.528c12.8,0,23.04,10.24,23.04,22.528V256z"/>
	</g>
</g>
<g>
</g>
<g>
</g>
<g>
</g>
<g>
</g>
<g>
</g>
<g>
</g>
<g>
</g>
<g>
</g>
<g>
</g>
<g>
</g>
<g>
</g>
<g>
</g>
<g>
</g>
<g>
</g>
<g>
</g>
</svg>
