<?xml version="1.0" encoding="UTF-8"?> <!-- Generator: Adobe Illustrator 23.0.1, SVG Export Plug-In . SVG Version: 6.00 Build 0) --> <svg xmlns="http://www.w3.org/2000/svg" xmlns:xlink="http://www.w3.org/1999/xlink" x="0px" y="0px" viewBox="0 0 800 600" style="enable-background:new 0 0 800 600;" xml:space="preserve"> <style type="text/css"> #conveyer_line01 { transform-origin: 144.905px 132.608px; animation-name: conveyer-roll; animation-duration: 3s; animation-timing-function: linear; animation-iteration-count: infinite; } #conveyer_line02 { transform-origin: 162.905px 140.608px; animation-name: conveyer-roll; animation-duration: 3s; animation-timing-function: linear; animation-iteration-count: infinite; animation-delay: -0.25s; } #conveyer_line03 { transform-origin: 162.905px 140.608px; animation-name: conveyer-roll; animation-duration: 3s; animation-timing-function: linear; animation-iteration-count: infinite; animation-delay: -0.5s; } #conveyer_line04 { transform-origin: 162.905px 140.608px; animation-name: conveyer-roll; animation-duration: 3s; animation-timing-function: linear; animation-iteration-count: infinite; animation-delay: -0.75s; } #conveyer_line05 { transform-origin: 162.905px 140.608px; animation-name: conveyer-roll; animation-duration: 3s; animation-timing-function: linear; animation-iteration-count: infinite; animation-delay: -1s; } #conveyer_line06 { transform-origin: 162.905px 140.608px; animation-name: conveyer-roll; animation-duration: 3s; animation-timing-function: linear; animation-iteration-count: infinite; animation-delay: -1.25s; } #conveyer_line07 { transform-origin: 162.905px 140.608px; animation-name: conveyer-roll; animation-duration: 3s; animation-timing-function: linear; animation-iteration-count: infinite; animation-delay: -1.5s; } #conveyer_line08 { transform-origin: 162.905px 140.608px; animation-name: conveyer-roll; animation-duration: 3s; animation-timing-function: linear; animation-iteration-count: infinite; animation-delay: -1.75s; } #conveyer_line09 { transform-origin: 162.905px 140.608px; animation-name: conveyer-roll; animation-duration: 3s; animation-timing-function: linear; animation-iteration-count: infinite; animation-delay: -2s; } #conveyer_line10 { transform-origin: 162.905px 140.608px; animation-name: conveyer-roll; animation-duration: 3s; animation-timing-function: linear; animation-iteration-count: infinite; animation-delay: -2.25s; } #conveyer_line11 { transform-origin: 162.905px 140.608px; animation-name: conveyer-roll; animation-duration: 3s; animation-timing-function: linear; animation-iteration-count: infinite; animation-delay: -2.5s; } #conveyer_line12 { transform-origin: 162.905px 140.608px; animation-name: conveyer-roll; animation-duration: 3s; animation-timing-function: linear; animation-iteration-count: infinite; animation-delay: -2.75s; } #arm_back { transform-origin: 208.053px 132.805px; } #donut, #donut2 { transform-origin: 208.053px 147.491px; animation-name: donut-roll; animation-duration: 4s; animation-timing-function: linear; animation-iteration-count: infinite; } #donut2 { animation-delay: -2s; } #arm_left { transform-origin: 208.053px 109.099px; animation-name: arm-left-rotate; animation-duration: 2s; animation-timing-fucnction: linear; animation-iteration-count: infinite; } #arm_right { transform-origin: 208.125px 109.099px; animation-name: arm-right-rotate; animation-duration: 2s; animation-timing-fucnction: linear; animation-iteration-count: infinite; } #back_string { transform-origin: 208.053px 58.5px; } #center { transform-origin: 208.053px 116.783px; } #donut_shadow, #donut_shadow2 { transform-origin: 208.053px 158px; opacity: 0; animation-name: shadow-fade; animation-duration: 4s; animation-timing-function: linear; animation-iteration-count: infinite; } #donut_shadow2 { animation-delay: -2s; } #arm_back, #crane { animation-name: crane-drop; animation-duration: 2s; animation-timing-function: linear; animation-iteration-count: infinite; animation-delay: 0s; } @keyframes conveyer-roll { 0% { transform: translate(0px, 0px); } 90% { transform: translate(498px, 287px); } 95% { transform: translate(520px, 311px); } 100% { transform: translate(513px, 330px); } } @keyframes crane-drop { 0% { transform: translate(0px, -200px); } 50% { transform: translate(0px, 0px); } 55% { transform: translate(0px, 0px); } 100% { transform: translate(0px, -200px); } } @keyframes arm-left-rotate { 50% { transform: rotate(0deg); } 55% { transform: rotate(20deg) } 60% { transform: rotate(20deg) } 95% { transform: rotate(0deg); } } @keyframes arm-right-rotate { 50% { transform: rotate(0deg); } 55% { transform: rotate(-20deg) } 60% { transform: rotate(-20deg) } 95% { transform: rotate(0deg); } } @keyframes donut-roll { 0% { transform: translate(0px, -200px); } 25% { transform: translate(0px, 0px); } 84% { transform: translate(435px, 248px) rotate(0deg); } 91% { transform: translate(480px, 330px) rotate(60deg); } 100% { transform: translate(495px, 480px) rotate(120deg); } } @keyframes shadow-fade { 0% { transform: translate(0px, 0px) scale(1.5); opacity: 0; } 25% { transform: translate(0px, 0px) scale(1); opacity: 0.75; } 84% { transform: translate(435px, 248px) rotate(0deg); opacity: 0.75; } 86% { opacity: 0; } 91% { transform: translate(480px, 330px) rotate(60deg); } 100% { transform: translate(495px, 480px) rotate(120deg); } } .st0{fill:#C2C4CD;} .st1{fill:#00BFAF;stroke:#0B1536;stroke-width:3;stroke-miterlimit:10;} .st2{fill:#0B1536;} .st3{fill:#FFFFFF;} .st4{fill:#0B1536;stroke:#0B1536;stroke-width:3;stroke-linecap:round;stroke-linejoin:round;stroke-miterlimit:10;} .st5{fill:#0B1536;stroke:#C2C4CD;stroke-width:5;stroke-linecap:round;stroke-linejoin:round;stroke-miterlimit:10;} .st6{fill:#0B1536;stroke:#A298D7;stroke-width:5;stroke-linecap:round;stroke-linejoin:round;stroke-miterlimit:10;} .st7{fill:#010611;} .st8{fill:#FEC6AD;} .st9{fill:#FDAA84;} .st10{fill:#FD5F6A;} .st11{fill:#FE949B;} .st12{fill:#FD8E5B;} .st13{fill:#FD2A38;} .st14{fill:none;stroke:#A298D7;stroke-width:5;stroke-linecap:round;stroke-linejoin:round;stroke-miterlimit:10;} .st15{fill:#0B1536;stroke:#A298D7;stroke-width:5;stroke-linejoin:round;stroke-miterlimit:10;} .st16{fill:#A298D7;} </style> <g id="conveyer"> <path id="conveter_shadow" class="st0" d="M563.5,533.12L79.29,253.61c-7.96-4.6-8.22-15.99-0.48-20.94l90.99-58.21 c3.69-2.36,8.42-2.62,12.24-0.45c0.04,0.02,0.07,0.04,0.11,0.06l504.64,291.3c8.17,4.72,8.17,16.51,0,21.23l-80.56,46.51 C593,540.75,576.72,540.75,563.5,533.12z"></path> <g id="conveyer_belt"> <path class="st1" d="M584.86,497.93L94.83,215.01c-9.01-5.2-16.31-19.15-16.31-31.16v0c0-12.01,7.3-17.53,16.31-12.33 l490.03,282.92c9.01,5.2,16.31,19.15,16.31,31.16v0C601.17,497.61,593.87,503.13,584.86,497.93z"></path> <path class="st2" d="M583.32,487.3L94.37,205.56c-5.05-2.92-9.15-10.74-9.15-17.48v0c0-6.74,4.1-9.83,9.15-6.92L583.32,462.9 c5.05,2.92,9.15,10.74,9.15,17.48v0C592.47,487.12,588.37,490.22,583.32,487.3z"></path> <path class="st3" d="M586.84,483.39c-0.16-0.03-0.5-0.11-1.03-0.42L96.87,201.23c-3.13-1.81-6.65-7.82-6.65-13.15 c0-1.79,0.42-2.71,0.62-3c0.17,0.03,0.51,0.12,1.03,0.42l488.95,281.74c3.13,1.81,6.65,7.82,6.65,13.15 C587.47,482.18,587.05,483.09,586.84,483.39z"></path> <path class="st1" d="M705.17,428.47L215.14,145.55c-9.01-5.2-16.31-19.15-16.31-31.16v0c0-12.01,7.3-17.53,16.31-12.33 l490.03,282.92c9.01,5.2,16.31,19.15,16.31,31.16v0C721.48,428.15,714.18,433.67,705.17,428.47z"></path> <g> <path class="st1" d="M81.57,172.96"></path> <path class="st1" d="M201.63,103.83"></path> <path class="st4" d="M205.58,100.67c2.69-1.05,5.99-0.67,9.56,1.39l490.03,282.92c9.01,5.2,16.31,19.15,16.31,31.16v0 c0,7.36-2.74,12.28-6.94,13.79l-119.31,69.02c3.62-1.9,5.93-6.6,5.93-13.35v0c0-12.01-7.3-25.96-16.31-31.16L94.83,171.53 c-3.71-2.14-7.14-2.47-9.88-1.26L205.58,100.67z"></path> </g> </g> <g id="conveyer_belt_1_"> <line id="conveyer_line01" class="st5" x1="81.57" y1="169.17" x2="208.24" y2="96.04"></line> <line id="conveyer_line02" class="st5" x1="81.57" y1="169.17" x2="208.24" y2="96.04"></line> <line id="conveyer_line03" class="st5" x1="81.57" y1="169.17" x2="208.24" y2="96.04"></line> <line id="conveyer_line04" class="st5" x1="81.57" y1="169.17" x2="208.24" y2="96.04"></line> <line id="conveyer_line05" class="st5" x1="81.57" y1="169.17" x2="208.24" y2="96.04"></line> <line id="conveyer_line06" class="st5" x1="81.57" y1="169.17" x2="208.24" y2="96.04"></line> <line id="conveyer_line07" class="st5" x1="81.57" y1="169.17" x2="208.24" y2="96.04"></line> <line id="conveyer_line08" class="st5" x1="81.57" y1="169.17" x2="208.24" y2="96.04"></line> <line id="conveyer_line09" class="st5" x1="81.57" y1="169.17" x2="208.24" y2="96.04"></line> <line id="conveyer_line10" class="st5" x1="81.57" y1="169.17" x2="208.24" y2="96.04"></line> <line id="conveyer_line11" class="st5" x1="81.57" y1="169.17" x2="208.24" y2="96.04"></line> <line id="conveyer_line12" class="st5" x1="81.57" y1="169.17" x2="208.24" y2="96.04"></line> </g> </g> <g id="crane_1_"> <line id="arm_back" class="st6" x1="208.05" y1="116.5" x2="208.05" y2="149.11"></line> <g id="donut_1_"> <g id="donut_shadow"> <ellipse transform="matrix(0.121 -0.9927 0.9927 0.121 26.0424 345.4092)" class="st7" cx="208.05" cy="158" rx="24" ry="42.42"></ellipse> </g> <g id="donut"> <g id="_x3C_Path_x3E__2_"> <path class="st8" d="M243.11,143.41c-0.02,4.63-2.84,9.05-8.56,12.36c-12.68,7.32-34.83,6.4-49.48-2.05 c-8.24-4.76-12.34-10.88-12.1-16.64c0,0-3.64,13.94,3.79,24.1c1.46,1.99,5.72,5.11,8.31,6.61c14.64,8.45,38.52,10,49.48,0.29 C245.86,158.06,243.11,143.41,243.11,143.41z"></path> </g> <g> <path class="st9" d="M235.19,165.53c-11.23,9.95-35.69,8.36-50.69-0.3c-2.66-1.54-7.03-4.74-8.52-6.78 c-1.35-1.84-2.34-3.81-3.06-5.8c0.69,2.89,1.87,5.84,3.84,8.52c1.46,1.99,5.72,5.11,8.31,6.61c14.64,8.45,38.52,10,49.48,0.29 c4.76-4.22,7.02-9.25,8.06-13.67C241.31,158.16,239.05,162.11,235.19,165.53z"></path> </g> <g id="_x3C_Path_x3E_"> <ellipse transform="matrix(0.121 -0.9927 0.9927 0.121 43.4356 329.9735)" class="st10" cx="208.03" cy="140.46" rx="19.94" ry="35.25"></ellipse> </g> <g> <path class="st11" d="M181.52,129.15c12.68-7.32,34.83-6.4,49.48,2.05c7.06,4.07,11.07,9.15,11.93,14.14 c1.09-6.17-2.97-12.97-11.93-18.14c-14.64-8.45-36.8-9.37-49.48-2.05c-6.57,3.79-9.3,9.06-8.38,14.42 C173.84,135.66,176.6,131.99,181.52,129.15z"></path> </g> <g id="_x3C_Path_x3E__3_"> <ellipse transform="matrix(0.121 -0.9927 0.9927 0.121 43.4356 329.9735)" class="st12" cx="208.03" cy="140.46" rx="6.84" ry="12.1"></ellipse> </g> <g> <path class="st13" d="M198.93,140.49c4.35-2.51,11.95-2.2,16.98,0.7c1.46,0.84,2.53,1.82,3.23,2.83c1.94-2.5,0.8-5.78-3.23-8.11 c-5.03-2.9-12.63-3.22-16.98-0.7c-3.09,1.78-3.7,4.5-2.01,6.97C197.41,141.56,198.07,140.99,198.93,140.49z"></path> </g> <g> <path class="st10" d="M243.11,143.41c0-0.01-0.01-0.02-0.01-0.02c-0.01,4.64-2.82,9.07-8.55,12.38 c-12.68,7.32-34.83,6.4-49.48-2.05c-7.55-4.36-11.62-9.87-12.06-15.19c-0.13,0.08-0.26,0.16-0.39,0.24 c0,0,0.22,14.01,7.26,17.53c7.04,3.52,7.92,0,15.84,5.28c7.92,5.28,14.08,7.04,24.63,2.64c10.56-4.4,10.56-5.28,14.96-5.28 S246.51,152.52,243.11,143.41z"></path> </g> <g id="_x3C_Path_x3E__1_"> <path class="st11" d="M174.15,135.4c-0.26,1.78-0.09,3.57,0.42,5.25c0.52,1.68,1.38,3.22,2.43,4.61c2.1,2.79,4.9,4.99,7.9,6.79 c6.05,3.56,12.91,5.65,19.87,6.61c3.48,0.53,7.01,0.67,10.52,0.56c3.51-0.1,7.02-0.54,10.43-1.36c3.4-0.86,6.71-2.13,9.66-4.02 c2.94-1.86,5.47-4.58,6.49-8.05c-0.29,1.77-1.04,3.47-2.1,4.96c-1.05,1.5-2.38,2.78-3.82,3.9c-2.94,2.17-6.32,3.7-9.82,4.73 c-7.03,1.99-14.44,2.24-21.64,1.27c-3.6-0.53-7.15-1.35-10.6-2.52c-3.44-1.21-6.75-2.78-9.82-4.76 c-3.05-1.99-5.86-4.47-7.87-7.55c-0.99-1.55-1.75-3.24-2.14-5.03C173.66,139,173.68,137.13,174.15,135.4z"></path> </g> </g> <g id="donut_shadow2"> <ellipse transform="matrix(0.121 -0.9927 0.9927 0.121 26.0424 345.4092)" class="st7" cx="208.05" cy="158" rx="24" ry="42.42"></ellipse> </g> <g id="donut2"> <g id="_x3C_Path_x3E__2_"> <path class="st8" d="M243.11,143.41c-0.02,4.63-2.84,9.05-8.56,12.36c-12.68,7.32-34.83,6.4-49.48-2.05 c-8.24-4.76-12.34-10.88-12.1-16.64c0,0-3.64,13.94,3.79,24.1c1.46,1.99,5.72,5.11,8.31,6.61c14.64,8.45,38.52,10,49.48,0.29 C245.86,158.06,243.11,143.41,243.11,143.41z"></path> </g> <g> <path class="st9" d="M235.19,165.53c-11.23,9.95-35.69,8.36-50.69-0.3c-2.66-1.54-7.03-4.74-8.52-6.78 c-1.35-1.84-2.34-3.81-3.06-5.8c0.69,2.89,1.87,5.84,3.84,8.52c1.46,1.99,5.72,5.11,8.31,6.61c14.64,8.45,38.52,10,49.48,0.29 c4.76-4.22,7.02-9.25,8.06-13.67C241.31,158.16,239.05,162.11,235.19,165.53z"></path> </g> <g id="_x3C_Path_x3E_"> <ellipse transform="matrix(0.121 -0.9927 0.9927 0.121 43.4356 329.9735)" class="st10" cx="208.03" cy="140.46" rx="19.94" ry="35.25"></ellipse> </g> <g> <path class="st11" d="M181.52,129.15c12.68-7.32,34.83-6.4,49.48,2.05c7.06,4.07,11.07,9.15,11.93,14.14 c1.09-6.17-2.97-12.97-11.93-18.14c-14.64-8.45-36.8-9.37-49.48-2.05c-6.57,3.79-9.3,9.06-8.38,14.42 C173.84,135.66,176.6,131.99,181.52,129.15z"></path> </g> <g id="_x3C_Path_x3E__3_"> <ellipse transform="matrix(0.121 -0.9927 0.9927 0.121 43.4356 329.9735)" class="st12" cx="208.03" cy="140.46" rx="6.84" ry="12.1"></ellipse> </g> <g> <path class="st13" d="M198.93,140.49c4.35-2.51,11.95-2.2,16.98,0.7c1.46,0.84,2.53,1.82,3.23,2.83c1.94-2.5,0.8-5.78-3.23-8.11 c-5.03-2.9-12.63-3.22-16.98-0.7c-3.09,1.78-3.7,4.5-2.01,6.97C197.41,141.56,198.07,140.99,198.93,140.49z"></path> </g> <g> <path class="st10" d="M243.11,143.41c0-0.01-0.01-0.02-0.01-0.02c-0.01,4.64-2.82,9.07-8.55,12.38 c-12.68,7.32-34.83,6.4-49.48-2.05c-7.55-4.36-11.62-9.87-12.06-15.19c-0.13,0.08-0.26,0.16-0.39,0.24 c0,0,0.22,14.01,7.26,17.53c7.04,3.52,7.92,0,15.84,5.28c7.92,5.28,14.08,7.04,24.63,2.64c10.56-4.4,10.56-5.28,14.96-5.28 S246.51,152.52,243.11,143.41z"></path> </g> <g id="_x3C_Path_x3E__1_"> <path class="st11" d="M174.15,135.4c-0.26,1.78-0.09,3.57,0.42,5.25c0.52,1.68,1.38,3.22,2.43,4.61c2.1,2.79,4.9,4.99,7.9,6.79 c6.05,3.56,12.91,5.65,19.87,6.61c3.48,0.53,7.01,0.67,10.52,0.56c3.51-0.1,7.02-0.54,10.43-1.36c3.4-0.86,6.71-2.13,9.66-4.02 c2.94-1.86,5.47-4.58,6.49-8.05c-0.29,1.77-1.04,3.47-2.1,4.96c-1.05,1.5-2.38,2.78-3.82,3.9c-2.94,2.17-6.32,3.7-9.82,4.73 c-7.03,1.99-14.44,2.24-21.64,1.27c-3.6-0.53-7.15-1.35-10.6-2.52c-3.44-1.21-6.75-2.78-9.82-4.76 c-3.05-1.99-5.86-4.47-7.87-7.55c-0.99-1.55-1.75-3.24-2.14-5.03C173.66,139,173.68,137.13,174.15,135.4z"></path> </g> </g> </g> <g id="crane"> <path id="arm_left" class="st14" d="M208.05,116.78l-16.74-6.93c-3.99-1.65-8.6-0.54-11.4,2.75l-5.11,6 c-5.51,6.46-7.55,15.19-5.49,23.43L173.3,158"></path> <path id="arm_right" class="st14" d="M208.13,116.78l16.74-6.93c3.99-1.65,8.6-0.54,11.4,2.75l5.11,6 c5.51,6.46,7.55,15.19,5.49,23.43L242.88,158"></path> <line id="back_string" class="st15" x1="208.05" y1="0" x2="208.05" y2="117"></line> <g id="center"> <path class="st2" d="M208.05,125c-4.53,0-8.21-3.69-8.21-8.21s3.69-8.21,8.21-8.21c4.53,0,8.21,3.69,8.21,8.21 S212.58,125,208.05,125z"></path> <path class="st16" d="M208.05,111.07c3.16,0,5.71,2.56,5.71,5.71s-2.56,5.71-5.71,5.71s-5.71-2.56-5.71-5.71 S204.9,111.07,208.05,111.07 M208.05,106.07c-5.91,0-10.71,4.81-10.71,10.71s4.81,10.71,10.71,10.71s10.71-4.81,10.71-10.71 S213.96,106.07,208.05,106.07L208.05,106.07z"></path> </g> </g> </g> </svg> 