<svg viewBox="0 0 100 50" version="1.1" xmlns="http://www.w3.org/2000/svg" desc="Created on https://convert2svg.com/" ><path fill="rgb(39,116,155)" stroke="rgb(39,116,155)" stroke-width="1" opacity="0.9882352941176471" d="M 0 0 L 100 0 L 100 50 L 0 50 L 0 0 Z M 2 2 L 2 48 L 26 48 L 26 2 L 2 2 Z M 28 2 L 28 48 L 98 48 L 98 2 L 28 2 Z " /><path fill="rgb(39,116,155)" stroke="rgb(39,116,155)" stroke-width="1" opacity="0.9882352941176471" d="M 38.5 33 L 39 34.5 L 37 37.5 L 41 38.5 L 33.5 45 L 33 43.5 L 35 40.5 L 31 39.5 L 38.5 33 Z " /><path fill="rgb(1,0,0)" stroke="rgb(1,0,0)" stroke-width="1" opacity="0" d="M 37.5 33 L 36.5 35 L 37.5 33 Z " /><path fill="rgb(1,0,0)" stroke="rgb(1,0,0)" stroke-width="1" opacity="0" d="M 34.5 35 L 31.5 39 L 34.5 35 Z " /><path fill="rgb(1,0,0)" stroke="rgb(1,0,0)" stroke-width="1" opacity="0" d="M 37.5 37 L 41 37.5 L 37.5 38 L 37.5 37 Z " /><path fill="rgb(1,0,0)" stroke="rgb(1,0,0)" stroke-width="1" opacity="0" d="M 40.5 39 L 37.5 43 L 40.5 39 Z " /><path fill="rgb(1,0,0)" stroke="rgb(1,0,0)" stroke-width="1" opacity="0" d="M 31.5 40 L 35 40.5 L 31.5 41 L 31.5 40 Z " /><path fill="rgb(1,0,0)" stroke="rgb(1,0,0)" stroke-width="1" opacity="0" d="M 35.5 43 L 34.5 45 L 35.5 43 Z " /><path fill="rgb(0,0,0)" stroke="rgb(0,0,0)" stroke-width="1" opacity="0" d="M 2 2 L 26 2 L 26 48 L 2 48 L 2 2 Z " /><path fill="rgb(0,0,0)" stroke="rgb(0,0,0)" stroke-width="1" opacity="0" d="M 28 2 L 98 2 L 98 48 L 28 48 L 28 2 Z M 38 33 L 35 35 Q 30 36 31 41 L 34 42 L 33 45 L 38 43 Q 42 42 41 37 L 38 37 L 40 34 L 38 33 Z " /></svg>